<?xml version="1.0" encoding="iso-8859-1"?>
<!-- Generator: Adobe Illustrator 19.0.0, SVG Export Plug-In . SVG Version: 6.00 Build 0)  -->
<svg version="1.1" id="Capa_1" xmlns="http://www.w3.org/2000/svg" xmlns:xlink="http://www.w3.org/1999/xlink" x="0px" y="0px"
	 viewBox="0 0 496 496" style="enable-background:new 0 0 496 496;" xml:space="preserve">
<rect x="56" y="264" style="fill:#ECECEC;" width="384" height="224"/>
<rect x="56" y="464" style="fill:#B6C1CE;" width="384" height="24"/>
<path style="fill:#FB5968;" d="M416,88h-72H152H80L32,232v24c0,13.256,10.744,24,24,24s24-10.744,24-24c0,13.256,10.744,24,24,24
	s24-10.744,24-24c0,13.256,10.744,24,24,24s24-10.744,24-24c0,13.256,10.744,24,24,24s24-10.744,24-24c0,13.256,10.744,24,24,24
	c13.256,0,24-10.744,24-24c0,13.256,10.744,24,24,24s24-10.744,24-24c0,13.256,10.744,24,24,24s24-10.744,24-24
	c0,13.256,10.744,24,24,24s24-10.744,24-24c0,13.256,10.744,24,24,24s24-10.744,24-24v-24L416,88z"/>
<path style="fill:#CD2C5A;" d="M56,280c13.256,0,24-10.744,24-24c0,13.256,10.744,24,24,24s24-10.744,24-24
	c0,13.256,10.744,24,24,24s24-10.744,24-24c0,13.256,10.744,24,24,24s24-10.744,24-24c0,13.256,10.744,24,24,24
	c13.256,0,24-10.744,24-24c0,13.256,10.744,24,24,24s24-10.744,24-24c0,13.256,10.744,24,24,24s24-10.744,24-24
	c0,13.256,10.744,24,24,24s24-10.744,24-24c0,13.256,10.744,24,24,24s24-10.744,24-24v-24H32v24C32,269.256,42.744,280,56,280z"/>
<circle style="fill:#FFEAA7;" cx="248" cy="104" r="96"/>
<g>
	<path style="fill:#92E0C0;" d="M128,424c-0.488,0-0.944,0.112-1.424,0.144C123.312,414.768,114.488,408,104,408
		c-1.944,0-3.816,0.296-5.624,0.736C93.976,403.44,87.424,400,80,400s-13.976,3.44-18.376,8.736C59.816,408.296,57.944,408,56,408
		c-10.488,0-19.312,6.768-22.576,16.144C32.944,424.112,32.488,424,32,424c-13.256,0-24,10.744-24,24v40h144v-40
		C152,434.744,141.256,424,128,424z"/>
	<path style="fill:#92E0C0;" d="M464,424c-0.488,0-0.944,0.112-1.424,0.144C459.312,414.768,450.488,408,440,408
		c-1.944,0-3.816,0.296-5.624,0.736C429.976,403.44,423.424,400,416,400s-13.976,3.44-18.376,8.736
		c-1.808-0.44-3.68-0.736-5.624-0.736c-10.488,0-19.312,6.768-22.576,16.144c-0.48-0.032-0.936-0.144-1.424-0.144
		c-13.256,0-24,10.744-24,24v40h144v-40C488,434.744,477.256,424,464,424z"/>
</g>
<g>
	<rect x="344" y="456" style="fill:#D3A06C;" width="144" height="32"/>
	<rect x="8" y="456" style="fill:#D3A06C;" width="144" height="32"/>
</g>
<rect x="184" y="312" style="fill:#EABD8C;" width="128" height="176"/>
<rect x="184" y="464" style="fill:#D3A06C;" width="128" height="24"/>
<g>
	<rect x="96" y="320" style="fill:#39C3FC;" width="48" height="48"/>
	<rect x="352" y="320" style="fill:#39C3FC;" width="48" height="48"/>
</g>
<path d="M467.728,416.216c-4.296-7.576-11.36-13.048-19.728-15.192v-114.16c13.76-3.576,24-15.992,24-30.864v-25.296L421.768,80
	h-72.672C338.216,34.208,297.072,0,248,0s-90.216,34.208-101.096,80H74.232L24,230.704V256c0,14.872,10.24,27.288,24,30.864v114.16
	c-8.368,2.136-15.432,7.616-19.728,15.192C12.376,418.072,0,431.616,0,448v48h496v-48C496,431.616,483.624,418.072,467.728,416.216z
	 M455.016,426.776l1.968,5.648l5.976-0.288c0.456-0.024,0.896-0.08,1.04-0.136c8.824,0,16,7.176,16,16H352
	c0-8.824,7.176-16,15.696-16l7.312,0.424l1.968-5.648C379.224,420.328,385.264,416,392,416c1.112,0,2.304,0.168,3.744,0.504
	l4.848,1.168l3.184-3.832c6.176-7.44,18.264-7.44,24.448,0l3.184,3.832l4.848-1.168c1.44-0.336,2.632-0.504,3.744-0.504
	C446.736,416,452.776,420.328,455.016,426.776z M440,272c-8.824,0-16-7.176-16-16v-16h32v16C456,264.824,448.824,272,440,272z
	 M208,112c-8.824,0-16-7.176-16-16c0-11.96,10.016-32,16-32s16,20.04,16,32C224,104.824,216.824,112,208,112z M217.576,203.44
	L216.432,224h-31.496l3.848-34.616C197.512,195.456,207.184,200.248,217.576,203.44z M307.216,189.384L311.064,224h-31.496
	l-1.144-20.56C288.816,200.248,298.488,195.456,307.216,189.384z M374.776,224L353.44,96h24.144l28.448,128H374.776z M358.56,224
	h-31.4l-5.216-46.976c9.888-10.008,17.688-22.04,22.896-35.368L358.56,224z M262.592,206.856L263.544,224h-31.088l0.952-17.144
	C238.192,207.528,243.032,208,248,208C252.968,208,257.808,207.528,262.592,206.856z M168.84,224h-31.4l13.72-82.336
	c5.2,13.328,13.008,25.352,22.896,35.368L168.84,224z M121.224,224H89.968l28.448-128h24.144L121.224,224z M88,240h32v16
	c0,8.824-7.176,16-16,16s-16-7.176-16-16V240z M136,240h32v16c0,8.824-7.176,16-16,16s-16-7.176-16-16V240z M184,240h32v16
	c0,8.824-7.176,16-16,16s-16-7.176-16-16V240z M232,240h32v16c0,8.824-7.176,16-16,16s-16-7.176-16-16V240z M280,240h32v16
	c0,8.824-7.176,16-16,16s-16-7.176-16-16V240z M328,240h32v16c0,8.824-7.176,16-16,16s-16-7.176-16-16V240z M376,240h32v16
	c0,8.824-7.176,16-16,16s-16-7.176-16-16V240z M452.904,224h-30.488L393.968,96h16.264L452.904,224z M248,16c48.52,0,88,39.48,88,88
	c0,30.816-15.952,57.936-40,73.664v-50.8c13.76-3.576,24-15.992,24-30.864V56h-16v40c0,5.896-3.24,11-8,13.776V56h-16v53.776
	c-4.76-2.776-8-7.88-8-13.776V56h-16v40c0,14.872,10.24,27.288,24,30.864v59.024c-9.936,3.896-20.704,6.112-32,6.112
	s-22.064-2.216-32-6.112v-59.024c13.76-3.576,24-15.992,24-30.864c0-16.488-12.464-48-32-48s-32,31.512-32,48
	c0,14.872,10.24,27.288,24,30.864v50.8c-24.048-15.728-40-42.848-40-73.664C160,55.48,199.48,16,248,16z M85.768,96h16.264
	L73.584,224H43.096L85.768,96z M40,256v-16h32v16c0,8.824-7.176,16-16,16S40,264.824,40,256z M31.696,432l7.312,0.424l1.968-5.648
	C43.224,420.328,49.264,416,56,416c1.112,0,2.304,0.168,3.744,0.504l4.848,1.168l3.184-3.832c6.176-7.44,18.264-7.44,24.448,0
	l3.184,3.832l4.848-1.168c1.44-0.336,2.632-0.504,3.744-0.504c6.736,0,12.776,4.328,15.016,10.776l1.968,5.648l5.976-0.288
	c0.456-0.024,0.896-0.08,1.04-0.136c8.824,0,16,7.176,16,16H16C16,439.176,23.176,432,31.696,432z M16,480v-16h128v16H16z M304,480
	H192V320h112V480z M336,480h-16V304H176v176h-16v-32c0-16.384-12.376-29.928-28.272-31.784c-6.056-10.68-17.56-17.312-30.552-16.08
	c-10.072-9.008-25.608-10.2-37.176-3.656v-109.6c6.272-1.632,11.84-5.024,16-9.744C85.864,283.8,94.456,288,104,288
	s18.136-4.2,24-10.856C133.864,283.8,142.456,288,152,288s18.136-4.2,24-10.856C181.864,283.8,190.456,288,200,288
	s18.136-4.2,24-10.856C229.864,283.8,238.456,288,248,288s18.136-4.2,24-10.856C277.864,283.8,286.456,288,296,288
	s18.136-4.2,24-10.856C325.864,283.8,334.456,288,344,288s18.136-4.2,24-10.856C373.864,283.8,382.456,288,392,288
	s18.136-4.2,24-10.856c4.16,4.72,9.728,8.12,16,9.744v109.6c-11.568-6.552-27.104-5.36-37.176,3.656
	c-12.96-1.248-24.504,5.4-30.552,16.08C348.376,418.072,336,431.616,336,448V480z M352,480v-16h128v16H352z"/>
<rect x="208" y="392" width="16" height="16"/>
<path d="M88,376h64v-64H88V376z M104,328h32v32h-32V328z"/>
<path d="M408,312h-64v64h64V312z M392,360h-32v-32h32V360z"/>
<g>
</g>
<g>
</g>
<g>
</g>
<g>
</g>
<g>
</g>
<g>
</g>
<g>
</g>
<g>
</g>
<g>
</g>
<g>
</g>
<g>
</g>
<g>
</g>
<g>
</g>
<g>
</g>
<g>
</g>
</svg>
